<mxfile host="Electron" agent="Mozilla/5.0 (Windows NT 10.0; Win64; x64) AppleWebKit/537.36 (KHTML, like Gecko) draw.io/26.1.1 Chrome/132.0.6834.210 Electron/34.3.3 Safari/537.36" version="26.1.1">
  <diagram name="Page-1" id="UoxDxNecajiAQB9t9bmZ">
    <mxGraphModel dx="548" dy="645" grid="1" gridSize="10" guides="1" tooltips="1" connect="1" arrows="1" fold="1" page="1" pageScale="1000" pageWidth="850" pageHeight="1100" math="0" shadow="0">
      <root>
        <mxCell id="0" />
        <mxCell id="1" parent="0" />
        <mxCell id="F6HOkbekImChgRx1c8-9-1" value="Ελεγκτής Ειδοποίησης Αρχής" style="shape=umlBoundary;whiteSpace=wrap;html=1;" vertex="1" parent="1">
          <mxGeometry x="410" y="70" width="100" height="80" as="geometry" />
        </mxCell>
        <mxCell id="F6HOkbekImChgRx1c8-9-2" value="Ανάκτηση Αναφοράς με Ποσοστό Κινδύνου" style="ellipse;shape=umlControl;whiteSpace=wrap;html=1;" vertex="1" parent="1">
          <mxGeometry x="570" y="60" width="90" height="100" as="geometry" />
        </mxCell>
        <mxCell id="F6HOkbekImChgRx1c8-9-3" value="Αναφορά" style="ellipse;shape=umlEntity;whiteSpace=wrap;html=1;" vertex="1" parent="1">
          <mxGeometry x="760" y="70" width="80" height="80" as="geometry" />
        </mxCell>
        <mxCell id="F6HOkbekImChgRx1c8-9-4" value="Ανάκτηση Κατηγορίας Κινδύνου" style="ellipse;shape=umlControl;whiteSpace=wrap;html=1;" vertex="1" parent="1">
          <mxGeometry x="570" y="360" width="90" height="100" as="geometry" />
        </mxCell>
        <mxCell id="F6HOkbekImChgRx1c8-9-5" value="Ανάκτηση Διαθέσιμων Αρχών" style="ellipse;shape=umlControl;whiteSpace=wrap;html=1;" vertex="1" parent="1">
          <mxGeometry x="570" y="510" width="90" height="100" as="geometry" />
        </mxCell>
        <mxCell id="F6HOkbekImChgRx1c8-9-6" value="Έλεγχος Κατωφλίου Ποσοστού" style="ellipse;shape=umlControl;whiteSpace=wrap;html=1;" vertex="1" parent="1">
          <mxGeometry x="570" y="200" width="90" height="100" as="geometry" />
        </mxCell>
        <mxCell id="F6HOkbekImChgRx1c8-9-7" value="Επιλογή Κατάλληλης Αρχής" style="ellipse;shape=umlControl;whiteSpace=wrap;html=1;" vertex="1" parent="1">
          <mxGeometry x="580" y="670" width="90" height="100" as="geometry" />
        </mxCell>
        <mxCell id="F6HOkbekImChgRx1c8-9-8" value="Αρμόδια&lt;div&gt;&amp;nbsp;Αρχή&lt;/div&gt;" style="ellipse;shape=umlEntity;whiteSpace=wrap;html=1;" vertex="1" parent="1">
          <mxGeometry x="750" y="540" width="80" height="80" as="geometry" />
        </mxCell>
        <mxCell id="F6HOkbekImChgRx1c8-9-9" value="Σύνταξη Πακέτου Ειδοποίησης" style="ellipse;shape=umlControl;whiteSpace=wrap;html=1;" vertex="1" parent="1">
          <mxGeometry x="580" y="830" width="90" height="100" as="geometry" />
        </mxCell>
        <mxCell id="F6HOkbekImChgRx1c8-9-10" value="Ειδοποίηση" style="ellipse;shape=umlEntity;whiteSpace=wrap;html=1;" vertex="1" parent="1">
          <mxGeometry x="760" y="840" width="80" height="80" as="geometry" />
        </mxCell>
        <mxCell id="F6HOkbekImChgRx1c8-9-11" value="Αποστολή Ειδοποίησης" style="ellipse;shape=umlControl;whiteSpace=wrap;html=1;" vertex="1" parent="1">
          <mxGeometry x="580" y="1000" width="90" height="100" as="geometry" />
        </mxCell>
        <mxCell id="F6HOkbekImChgRx1c8-9-12" value="Καταγραφή Απόκρισης Αρχής" style="ellipse;shape=umlControl;whiteSpace=wrap;html=1;" vertex="1" parent="1">
          <mxGeometry x="580" y="1170" width="90" height="100" as="geometry" />
        </mxCell>
        <mxCell id="F6HOkbekImChgRx1c8-9-14" value="Ενημέρωση Κατάστασης Ειδοποίησης" style="ellipse;shape=umlControl;whiteSpace=wrap;html=1;" vertex="1" parent="1">
          <mxGeometry x="580" y="1350" width="90" height="100" as="geometry" />
        </mxCell>
        <mxCell id="F6HOkbekImChgRx1c8-9-15" value="Κατάσταση&lt;div&gt;Ειδοποίησης&lt;/div&gt;" style="ellipse;shape=umlEntity;whiteSpace=wrap;html=1;" vertex="1" parent="1">
          <mxGeometry x="760" y="1360" width="80" height="80" as="geometry" />
        </mxCell>
        <mxCell id="F6HOkbekImChgRx1c8-9-16" value="" style="endArrow=classic;html=1;rounded=0;" edge="1" parent="1" source="F6HOkbekImChgRx1c8-9-1" target="F6HOkbekImChgRx1c8-9-2">
          <mxGeometry width="50" height="50" relative="1" as="geometry">
            <mxPoint x="650" y="330" as="sourcePoint" />
            <mxPoint x="700" y="280" as="targetPoint" />
          </mxGeometry>
        </mxCell>
        <mxCell id="F6HOkbekImChgRx1c8-9-17" value="" style="endArrow=classic;html=1;rounded=0;exitX=1.005;exitY=0.531;exitDx=0;exitDy=0;exitPerimeter=0;" edge="1" parent="1" source="F6HOkbekImChgRx1c8-9-2">
          <mxGeometry width="50" height="50" relative="1" as="geometry">
            <mxPoint x="650" y="330" as="sourcePoint" />
            <mxPoint x="760" y="113" as="targetPoint" />
          </mxGeometry>
        </mxCell>
        <mxCell id="F6HOkbekImChgRx1c8-9-18" value="" style="endArrow=classic;html=1;rounded=0;exitX=0.473;exitY=0.976;exitDx=0;exitDy=0;exitPerimeter=0;entryX=0.491;entryY=0.072;entryDx=0;entryDy=0;entryPerimeter=0;" edge="1" parent="1" source="F6HOkbekImChgRx1c8-9-2" target="F6HOkbekImChgRx1c8-9-6">
          <mxGeometry width="50" height="50" relative="1" as="geometry">
            <mxPoint x="650" y="330" as="sourcePoint" />
            <mxPoint x="613" y="200" as="targetPoint" />
          </mxGeometry>
        </mxCell>
        <mxCell id="F6HOkbekImChgRx1c8-9-19" value="" style="endArrow=classic;html=1;rounded=0;entryX=0.544;entryY=0.04;entryDx=0;entryDy=0;entryPerimeter=0;" edge="1" parent="1" target="F6HOkbekImChgRx1c8-9-4">
          <mxGeometry width="50" height="50" relative="1" as="geometry">
            <mxPoint x="615" y="297" as="sourcePoint" />
            <mxPoint x="700" y="430" as="targetPoint" />
          </mxGeometry>
        </mxCell>
        <mxCell id="F6HOkbekImChgRx1c8-9-20" value="" style="endArrow=classic;html=1;rounded=0;exitX=0.5;exitY=0.984;exitDx=0;exitDy=0;exitPerimeter=0;entryX=0.5;entryY=0.044;entryDx=0;entryDy=0;entryPerimeter=0;" edge="1" parent="1" source="F6HOkbekImChgRx1c8-9-4" target="F6HOkbekImChgRx1c8-9-5">
          <mxGeometry width="50" height="50" relative="1" as="geometry">
            <mxPoint x="650" y="650" as="sourcePoint" />
            <mxPoint x="700" y="600" as="targetPoint" />
          </mxGeometry>
        </mxCell>
        <mxCell id="F6HOkbekImChgRx1c8-9-21" value="Κατηγορία Κινδύνου" style="ellipse;shape=umlEntity;whiteSpace=wrap;html=1;" vertex="1" parent="1">
          <mxGeometry x="750" y="380" width="80" height="80" as="geometry" />
        </mxCell>
        <mxCell id="F6HOkbekImChgRx1c8-9-22" value="" style="endArrow=classic;html=1;rounded=0;exitX=1.024;exitY=0.608;exitDx=0;exitDy=0;exitPerimeter=0;" edge="1" parent="1" source="F6HOkbekImChgRx1c8-9-4" target="F6HOkbekImChgRx1c8-9-21">
          <mxGeometry width="50" height="50" relative="1" as="geometry">
            <mxPoint x="690" y="390" as="sourcePoint" />
            <mxPoint x="740" y="340" as="targetPoint" />
          </mxGeometry>
        </mxCell>
        <mxCell id="F6HOkbekImChgRx1c8-9-24" value="" style="endArrow=classic;html=1;rounded=0;" edge="1" parent="1" source="F6HOkbekImChgRx1c8-9-5" target="F6HOkbekImChgRx1c8-9-7">
          <mxGeometry width="50" height="50" relative="1" as="geometry">
            <mxPoint x="690" y="770" as="sourcePoint" />
            <mxPoint x="740" y="720" as="targetPoint" />
          </mxGeometry>
        </mxCell>
        <mxCell id="F6HOkbekImChgRx1c8-9-25" value="" style="endArrow=classic;html=1;rounded=0;entryX=0;entryY=0.5;entryDx=0;entryDy=0;" edge="1" parent="1" source="F6HOkbekImChgRx1c8-9-7" target="F6HOkbekImChgRx1c8-9-8">
          <mxGeometry width="50" height="50" relative="1" as="geometry">
            <mxPoint x="690" y="770" as="sourcePoint" />
            <mxPoint x="740" y="720" as="targetPoint" />
          </mxGeometry>
        </mxCell>
        <mxCell id="F6HOkbekImChgRx1c8-9-28" value="" style="endArrow=classic;html=1;rounded=0;" edge="1" parent="1" source="F6HOkbekImChgRx1c8-9-7" target="F6HOkbekImChgRx1c8-9-9">
          <mxGeometry width="50" height="50" relative="1" as="geometry">
            <mxPoint x="690" y="790" as="sourcePoint" />
            <mxPoint x="740" y="740" as="targetPoint" />
          </mxGeometry>
        </mxCell>
        <mxCell id="F6HOkbekImChgRx1c8-9-29" value="" style="endArrow=classic;html=1;rounded=0;entryX=0;entryY=0.5;entryDx=0;entryDy=0;" edge="1" parent="1" source="F6HOkbekImChgRx1c8-9-9" target="F6HOkbekImChgRx1c8-9-10">
          <mxGeometry width="50" height="50" relative="1" as="geometry">
            <mxPoint x="690" y="1020" as="sourcePoint" />
            <mxPoint x="740" y="970" as="targetPoint" />
          </mxGeometry>
        </mxCell>
        <mxCell id="F6HOkbekImChgRx1c8-9-30" value="" style="endArrow=classic;html=1;rounded=0;" edge="1" parent="1" source="F6HOkbekImChgRx1c8-9-9" target="F6HOkbekImChgRx1c8-9-11">
          <mxGeometry width="50" height="50" relative="1" as="geometry">
            <mxPoint x="690" y="1160" as="sourcePoint" />
            <mxPoint x="740" y="1110" as="targetPoint" />
          </mxGeometry>
        </mxCell>
        <mxCell id="F6HOkbekImChgRx1c8-9-31" value="" style="endArrow=classic;html=1;rounded=0;" edge="1" parent="1" source="F6HOkbekImChgRx1c8-9-11" target="F6HOkbekImChgRx1c8-9-12">
          <mxGeometry width="50" height="50" relative="1" as="geometry">
            <mxPoint x="710" y="1340" as="sourcePoint" />
            <mxPoint x="760" y="1290" as="targetPoint" />
          </mxGeometry>
        </mxCell>
        <mxCell id="F6HOkbekImChgRx1c8-9-32" value="" style="endArrow=classic;html=1;rounded=0;" edge="1" parent="1" source="F6HOkbekImChgRx1c8-9-12" target="F6HOkbekImChgRx1c8-9-14">
          <mxGeometry width="50" height="50" relative="1" as="geometry">
            <mxPoint x="710" y="1340" as="sourcePoint" />
            <mxPoint x="760" y="1290" as="targetPoint" />
          </mxGeometry>
        </mxCell>
        <mxCell id="F6HOkbekImChgRx1c8-9-33" value="" style="endArrow=classic;html=1;rounded=0;" edge="1" parent="1" source="F6HOkbekImChgRx1c8-9-14" target="F6HOkbekImChgRx1c8-9-15">
          <mxGeometry width="50" height="50" relative="1" as="geometry">
            <mxPoint x="710" y="1340" as="sourcePoint" />
            <mxPoint x="760" y="1290" as="targetPoint" />
          </mxGeometry>
        </mxCell>
        <mxCell id="F6HOkbekImChgRx1c8-9-34" value="Αντιμετώπιση αποτυχίας αποστολής" style="ellipse;shape=umlControl;whiteSpace=wrap;html=1;fillColor=#FF0000;" vertex="1" parent="1">
          <mxGeometry x="820" y="1000" width="90" height="100" as="geometry" />
        </mxCell>
        <mxCell id="F6HOkbekImChgRx1c8-9-35" value="" style="endArrow=classic;html=1;rounded=0;" edge="1" parent="1" source="F6HOkbekImChgRx1c8-9-11" target="F6HOkbekImChgRx1c8-9-34">
          <mxGeometry width="50" height="50" relative="1" as="geometry">
            <mxPoint x="750" y="1150" as="sourcePoint" />
            <mxPoint x="800" y="1100" as="targetPoint" />
          </mxGeometry>
        </mxCell>
        <mxCell id="F6HOkbekImChgRx1c8-9-37" value="Επιλογή Προεπιλεγμένης Αρχής" style="ellipse;shape=umlControl;whiteSpace=wrap;html=1;fillColor=#FF0000;" vertex="1" parent="1">
          <mxGeometry x="770" y="680" width="90" height="100" as="geometry" />
        </mxCell>
        <mxCell id="F6HOkbekImChgRx1c8-9-38" value="" style="endArrow=classic;html=1;rounded=0;exitX=0.978;exitY=0.629;exitDx=0;exitDy=0;exitPerimeter=0;entryX=0.054;entryY=0.537;entryDx=0;entryDy=0;entryPerimeter=0;" edge="1" parent="1" source="F6HOkbekImChgRx1c8-9-7" target="F6HOkbekImChgRx1c8-9-37">
          <mxGeometry width="50" height="50" relative="1" as="geometry">
            <mxPoint x="750" y="860" as="sourcePoint" />
            <mxPoint x="820" y="733" as="targetPoint" />
          </mxGeometry>
        </mxCell>
        <mxCell id="F6HOkbekImChgRx1c8-9-39" value="Log" style="ellipse;shape=umlEntity;whiteSpace=wrap;html=1;fillColor=#FF0000;" vertex="1" parent="1">
          <mxGeometry x="1080" y="690" width="80" height="80" as="geometry" />
        </mxCell>
        <mxCell id="F6HOkbekImChgRx1c8-9-42" value="Καταγραφή Μη αντιστοίχισης" style="ellipse;shape=umlControl;whiteSpace=wrap;html=1;fillColor=#FF0000;" vertex="1" parent="1">
          <mxGeometry x="930" y="680" width="90" height="100" as="geometry" />
        </mxCell>
        <mxCell id="F6HOkbekImChgRx1c8-9-43" value="" style="endArrow=classic;html=1;rounded=0;" edge="1" parent="1" source="F6HOkbekImChgRx1c8-9-37" target="F6HOkbekImChgRx1c8-9-42">
          <mxGeometry width="50" height="50" relative="1" as="geometry">
            <mxPoint x="870" y="860" as="sourcePoint" />
            <mxPoint x="920" y="810" as="targetPoint" />
          </mxGeometry>
        </mxCell>
        <mxCell id="F6HOkbekImChgRx1c8-9-44" value="" style="endArrow=classic;html=1;rounded=0;" edge="1" parent="1" source="F6HOkbekImChgRx1c8-9-42" target="F6HOkbekImChgRx1c8-9-39">
          <mxGeometry width="50" height="50" relative="1" as="geometry">
            <mxPoint x="870" y="860" as="sourcePoint" />
            <mxPoint x="920" y="810" as="targetPoint" />
          </mxGeometry>
        </mxCell>
        <mxCell id="F6HOkbekImChgRx1c8-9-45" value="Μη διαθέσιμη Κατάλληλη Αρχή" style="text;html=1;align=center;verticalAlign=middle;whiteSpace=wrap;rounded=0;" vertex="1" parent="1">
          <mxGeometry x="680" y="690" width="70" height="30" as="geometry" />
        </mxCell>
        <mxCell id="F6HOkbekImChgRx1c8-9-46" value="Αποτυχία" style="text;html=1;align=center;verticalAlign=middle;whiteSpace=wrap;rounded=0;" vertex="1" parent="1">
          <mxGeometry x="690" y="1020" width="60" height="30" as="geometry" />
        </mxCell>
        <mxCell id="F6HOkbekImChgRx1c8-9-47" value="&lt;span id=&quot;docs-internal-guid-5249cd6d-7fff-7b4a-3a3c-30877fd87830&quot;&gt;&lt;span style=&quot;font-size: 11pt; font-family: Arial, sans-serif; background-color: transparent; font-weight: 700; font-variant-numeric: normal; font-variant-east-asian: normal; font-variant-alternates: normal; font-variant-position: normal; font-variant-emoji: normal; vertical-align: baseline; white-space-collapse: preserve;&quot;&gt;Ειδοποίηση Αρμόδιας Αρχής για Περιστατικό Υψηλού Κινδύνου&lt;/span&gt;&lt;/span&gt;" style="text;html=1;align=center;verticalAlign=middle;whiteSpace=wrap;rounded=0;" vertex="1" parent="1">
          <mxGeometry x="370" y="20" width="260" height="30" as="geometry" />
        </mxCell>
      </root>
    </mxGraphModel>
  </diagram>
</mxfile>
